<?xml version="1.0" standalone="no"?>
<!DOCTYPE svg PUBLIC "-//W3C//DTD SVG 20010904//EN" "http://www.w3.org/TR/2001/REC-SVG-20010904/DTD/svg10.dtd">
<svg xmlns="http://www.w3.org/2000/svg" version="1.0" width="512.000000pt" height="512.000000pt" viewBox="0 0 512.000000 512.000000" preserveAspectRatio="xMidYMid meet">
<metadata>
Created by potrace 1.16, written by Peter Selinger 2001-2019
<meta name="Producer" content="Online-Convert"/></metadata>
<g transform="translate(0.000000,512.000000) scale(0.100000,-0.100000)" fill="#000000" stroke="none">
<path d="M0 2560 l0 -2560 2560 0 2560 0 0 2560 0 2560 -2560 0 -2560 0 0 -2560z m2339 188 c114 -268 209 -489 212 -492 2 -2 99 217 214 487 l210 492 308 3 307 2 0 -935 0 -935 -230 0 -230 0 -2 668 -3 668 -207 -485 -207 -486 -157 0 -157 0 -211 494 -211 495 -3 -677 -2 -677 -230 0 -230 0 0 935 0 935 311 -2 311 -3 207 -487z"/>
</g>
</svg>
